<svg t="1640995200000" class="icon" viewBox="0 0 1024 1024" version="1.1" xmlns="http://www.w3.org/2000/svg" p-id="2345" width="128" height="128">
  <path d="M512 85.333333c235.648 0 426.666667 191.018667 426.666667 426.666667s-191.018667 426.666667-426.666667 426.666667S85.333333 747.648 85.333333 512 276.352 85.333333 512 85.333333z m0 64C311.466667 149.333333 149.333333 311.466667 149.333333 512s162.133333 362.666667 362.666667 362.666667 362.666667-162.133333 362.666667-362.666667S712.533333 149.333333 512 149.333333z m-85.333333 170.666667c23.564 0 42.666667 19.102 42.666666 42.666667v85.333333h85.333334c23.564 0 42.666667 19.102 42.666666 42.666667s-19.102 42.666667-42.666666 42.666666h-85.333334v85.333334c0 23.564-19.102 42.666667-42.666666 42.666666s-42.666667-19.102-42.666667-42.666666v-85.333334H298.666667c-23.564 0-42.666667-19.102-42.666667-42.666666s19.102-42.666667 42.666667-42.666667h85.333333V362.666667c0-23.564 19.102-42.666667 42.666667-42.666667z" fill="currentColor" p-id="2346"></path>
</svg>